# xmcd CD database file
#
# Track frame offsets:
#	150
#	21193
#	42190
#	62368
#	81614
#	101813
#
# Disc length: 1713 seconds
#
# Revision: 0
# Processed by: cddbd v1.5.2PL0 Copyright (c) Steve Scherf et al.
# Submitted via: CD2WAV32(JP) R3.22
#
DISCID=4806af06
DTITLE=Rin' - 源氏ノスタルジー
DYEAR=2007
DGENRE=JPop
TTITLE0=紫のゆかり、ふたたび
TTITLE1=GENJI
TTITLE2=千年の虹(Guest Vocal-alan)
TTITLE3=乱華
TTITLE4=名もなき花
TTITLE5=浅キ夢見シ
EXTD=
EXTT0=
EXTT1=
EXTT2=
EXTT3=
EXTT4=
EXTT5=
PLAYORDER=
